<svg width="106" height="106" viewBox="0 0 106 106" fill="none" xmlns="http://www.w3.org/2000/svg">
<path d="M0 53C0 23.7289 23.7289 0 53 0C82.2711 0 106 23.7289 106 53C106 82.2711 82.2711 106 53 106C23.7289 106 0 82.2711 0 53Z" fill="#14600F"/>
<path fill-rule="evenodd" clip-rule="evenodd" d="M53 89C58.3533 89 63.4337 87.8315 68 85.7357C68 71.7361 68 71.7361 68 71.7361C68 71.7361 68 34.2639 68 20.2643C63.4337 18.1685 58.3533 17 53 17C33.1177 17 17 33.1177 17 53C17 72.8823 33.1177 89 53 89ZM53 77C58.6757 77 63.8912 75.0298 68 71.7361V34.2639C63.8912 30.9702 58.6757 29 53 29C39.7452 29 29 39.7452 29 53C29 66.2548 39.7452 77 53 77Z" fill="#FFBC00"/>
<path d="M40.2832 86.6895C40.0213 86.5993 40.6749 86.8348 40.2832 86.6895V44.8906H52.6758V53.3721H52.9395C53.7598 50.3838 55.1367 48.0986 57.0703 46.5166C59.0039 44.9346 61.3623 44.1436 64.1455 44.1436C65.4932 44.1436 66.709 44.3047 67.793 44.627V55.9209C66.5918 55.4229 65.0391 55.1738 63.1348 55.1738C59.9707 55.1738 57.5098 56.0967 55.752 57.9424C53.9941 59.7881 53.1152 62.3662 53.1152 65.6768V88.9998L51 89C50.8513 88.9807 50.4951 88.9258 50.2731 88.8983C48.7647 88.7152 49.0704 88.822 48 88.6556C46.8495 88.4394 47.1773 88.5635 46.3537 88.3877C46.2176 88.3676 46.4865 88.4081 46.3537 88.3877C46.3537 88.3877 45.0614 88.0147 45 88C44.8283 87.9583 44.2857 87.9395 43.9404 87.8504C43.595 87.7614 42.8991 87.6118 42.5 87.5C42.2781 87.4357 42.2301 87.3588 42 87.2884C41.4789 87.1228 40.5299 86.7724 40.2832 86.6895Z" fill="#FFBC00"/>
</svg>
