<svg width="416" height="111" viewBox="0 0 416 111" fill="none" xmlns="http://www.w3.org/2000/svg">
<path d="M52.0312 110.855C35.901 110.855 23.1849 105.982 13.8828 96.2344C4.63021 86.4375 0.00390625 72.8307 0.00390625 55.4141C0.00390625 38.0469 4.65495 24.4896 13.957 14.7422C23.2591 4.94531 35.9505 0.046875 52.0312 0.046875C60.987 0.046875 69.1016 1.85286 76.375 5.46484C83.6484 9.02734 89.4128 14.0742 93.668 20.6055C97.9727 27.0872 100.249 34.4844 100.496 42.7969H74.2969C73.6536 36.513 71.2786 31.4661 67.1719 27.6562C63.0651 23.7969 58.0182 21.8672 52.0312 21.8672C44.5599 21.8672 38.6471 24.8607 34.293 30.8477C29.9388 36.8346 27.7617 44.9987 27.7617 55.3398C27.7617 65.8294 29.9388 74.0677 34.293 80.0547C38.6471 86.0417 44.5846 89.0352 52.1055 89.0352C58.0924 89.0352 63.0898 87.2044 67.0977 83.543C71.1549 79.8815 73.6042 74.9089 74.4453 68.625H100.645C100.001 81.2917 95.2018 91.5091 86.2461 99.2773C77.2904 106.996 65.8854 110.855 52.0312 110.855ZM140.648 22.4609V52.8906H156.605C161.603 52.8906 165.512 51.5299 168.332 48.8086C171.152 46.0872 172.562 42.401 172.562 37.75C172.562 33.1484 171.103 29.4622 168.184 26.6914C165.264 23.8711 161.38 22.4609 156.531 22.4609H140.648ZM140.648 71.5195V109H113.41V1.90234H159.277C172.538 1.90234 182.706 4.99479 189.781 11.1797C196.857 17.3646 200.395 26.0482 200.395 37.2305C200.395 43.9596 198.762 50.0703 195.496 55.5625C192.28 61.0052 187.802 64.9883 182.062 67.5117L203.512 109H172.934L154.527 71.5195H140.648ZM225.332 14.9648C234.882 5.01953 247.771 0.046875 264 0.046875C280.229 0.046875 293.094 5.01953 302.594 14.9648C312.094 24.9102 316.844 38.418 316.844 55.4883C316.844 72.5586 312.094 86.0664 302.594 96.0117C293.094 105.908 280.229 110.855 264 110.855C247.721 110.855 234.832 105.908 225.332 96.0117C215.832 86.0664 211.082 72.5586 211.082 55.4883C211.082 38.418 215.832 24.9102 225.332 14.9648ZM282.258 31.2188C277.706 25.1823 271.62 22.1641 264 22.1641C256.38 22.1641 250.27 25.1823 245.668 31.2188C241.116 37.2057 238.84 45.2956 238.84 55.4883C238.84 65.6315 241.116 73.7214 245.668 79.7578C250.22 85.7448 256.331 88.7383 264 88.7383C271.62 88.7383 277.706 85.7448 282.258 79.7578C286.859 73.7214 289.16 65.6315 289.16 55.4883C289.16 45.2956 286.859 37.2057 282.258 31.2188ZM330.129 1.90234H376.516C388.044 1.90234 397.346 5.36589 404.422 12.293C411.547 19.1706 415.109 28.349 415.109 39.8281C415.109 51.2083 411.398 60.362 403.977 67.2891C396.555 74.1667 386.857 77.6055 374.883 77.6055H357.367V109H330.129V1.90234ZM357.367 22.7578V57.1211H369.168C375.007 57.1211 379.534 55.6367 382.75 52.668C385.966 49.6992 387.574 45.444 387.574 39.9023C387.574 34.3607 385.966 30.1302 382.75 27.2109C379.583 24.2422 375.105 22.7578 369.316 22.7578H357.367Z" fill="#114900"/>
</svg>
